<svg xmlns="http://www.w3.org/2000/svg" viewBox="0 0 216.46 214.6"><defs><style>.cls-1{fill:#fff;}</style></defs><g id="Layer_2" data-name="Layer 2"><g id="Layer_1-2" data-name="Layer 1"><path class="cls-1" d="M104.78,90.35c-5.31,16.46-90.92-.48-87.64,39.9,1.48,18.35,24.77,39.16,22.42,41.58C36.83,174.65-2.54,151,.13,122.68c2-21,22.73-30.55,54.64-41.53,12.58-4.33,37.47-12.9,46.64-2.42C103.75,81.39,106.16,86.08,104.78,90.35Z"/><ellipse class="cls-1" cx="36.55" cy="129.78" rx="5.82" ry="7.58" transform="translate(-98.07 137.16) rotate(-77.41)"/><path class="cls-1" d="M121.19,95.84c-16.91,3.63-45-79-78.38-55.95C27.66,50.35,21.28,80.92,18,80.1c-3.81-1-3-46.89,22.85-58.73,19.21-8.79,37.82,4.42,63.28,26.55,10,8.74,29.91,26,25.43,39.19C128.42,90.47,125.57,94.9,121.19,95.84Z"/><ellipse class="cls-1" cx="52.92" cy="56.46" rx="5.82" ry="7.58" transform="matrix(0.95, -0.3, 0.3, 0.95, -14.47, 18.42)"/><path class="cls-1" d="M124.64,112.79C113,100,170.51,34.29,133.9,16.94c-16.63-7.89-46.3,1.87-47.22-1.37C85.6,11.79,125.78-10.47,149,6c17.22,12.23,15.09,35,8.65,68.08-2.55,13.06-7.57,38.9-21.23,41.61C132.9,116.38,127.64,116.12,124.64,112.79Z"/><ellipse class="cls-1" cx="124.6" cy="33.99" rx="7.58" ry="5.82" transform="translate(15.26 102.72) rotate(-47.41)"/><path class="cls-1" d="M111.68,124.26c5.31-16.46,90.92.47,87.64-39.91C197.83,66,174.55,45.19,176.9,42.77,179.63,40,219,63.62,216.33,91.92c-2,21-22.74,30.55-54.64,41.53-12.59,4.33-37.47,12.9-46.65,2.42C112.71,133.21,110.3,128.52,111.68,124.26Z"/><ellipse class="cls-1" cx="179.91" cy="84.82" rx="5.82" ry="7.58" transform="translate(57.91 241.92) rotate(-77.41)"/><path class="cls-1" d="M95.27,118.76c16.91-3.63,45.05,79,78.38,56,15.14-10.46,21.53-41,24.8-40.21,3.8,1,3,46.89-22.86,58.73-19.2,8.79-37.82-4.42-63.28-26.55-10-8.74-29.9-26-25.42-39.19C88,124.13,90.88,119.7,95.27,118.76Z"/><ellipse class="cls-1" cx="163.53" cy="158.14" rx="5.82" ry="7.58" transform="translate(-39.82 56.18) rotate(-17.41)"/><path class="cls-1" d="M91.82,101.81c11.6,12.83-45.87,78.5-9.26,95.85,16.63,7.89,46.3-1.87,47.22,1.38,1.07,3.77-39.11,26-62.28,9.56-17.23-12.23-15.09-35-8.65-68.08,2.54-13.06,7.57-38.89,21.23-41.6C83.55,98.23,88.81,98.48,91.82,101.81Z"/><ellipse class="cls-1" cx="91.85" cy="180.61" rx="7.58" ry="5.82" transform="translate(-103.28 126.01) rotate(-47.41)"/></g></g></svg>